<svg width="78" height="70" viewBox="0 0 78 70" fill="none" xmlns="http://www.w3.org/2000/svg">
<g id="Frame">
<path id="Vector" d="M9.04151 28.466L9.86624 32.7729H12.2488L8.15569 11.3911H4.70405L0.610962 32.7729H2.81024L3.63496 28.466H9.04151ZM6.29242 14.0791L8.70551 26.4194H3.94042L6.29242 14.0791Z" fill="black"/>
<path id="Vector_2" d="M14.1082 11.3911V32.7729H16.4908V11.3911H14.1082Z" fill="black"/>
<path id="Vector_3" d="M18.9406 11.3911V32.7729H21.3232V23.6398H23.0032C24.9886 23.6398 26.1188 24.4034 26.1188 26.8165V30.1765C26.1188 31.6122 26.241 32.162 26.5159 32.7729H28.929C28.5319 32.0398 28.5014 31.154 28.5014 30.2071V26.8776C28.5014 24.5867 27.7683 22.9983 25.8134 22.418C27.6461 21.8376 28.4708 20.3714 28.4708 18.0194V16.2783C28.4708 13.1016 27.0657 11.3911 23.7057 11.3911H18.9406ZM21.3232 21.4711V13.5598H23.6446C25.4163 13.5598 26.1188 14.5678 26.1188 16.4922V18.5387C26.1188 20.8602 24.9886 21.4711 23.0948 21.4711H21.3232Z" fill="black"/>
<path id="Vector_4" d="M30.9619 11.3911V32.7729H35.9714C39.3008 32.7729 40.8281 30.7569 40.8281 27.4885V16.706C40.8281 13.4071 39.3008 11.3911 35.9714 11.3911H30.9619ZM33.3445 30.6042V13.5598H35.9103C37.6514 13.5598 38.4761 14.6289 38.4761 16.5838V27.5802C38.4761 29.5351 37.6514 30.6042 35.9408 30.6042H33.3445Z" fill="black"/>
<path id="Vector_5" d="M43.0728 11.3911V32.7729H45.4554V23.6398H47.1354C49.1208 23.6398 50.251 24.4034 50.251 26.8165V30.1765C50.251 31.6122 50.3732 32.162 50.6481 32.7729H53.0612C52.6641 32.0398 52.6336 31.154 52.6336 30.2071V26.8776C52.6336 24.5867 51.9005 22.9983 49.9456 22.418C51.7783 21.8376 52.603 20.3714 52.603 18.0194V16.2783C52.603 13.1016 51.1979 11.3911 47.8379 11.3911H43.0728ZM45.4554 21.4711V13.5598H47.7768C49.5485 13.5598 50.251 14.5678 50.251 16.4922V18.5387C50.251 20.8602 49.1208 21.4711 47.227 21.4711H45.4554Z" fill="black"/>
<path id="Vector_6" d="M54.9108 27.6107C54.9108 30.8485 56.5297 32.9867 59.798 32.9867C63.0969 32.9867 64.7159 30.8485 64.7159 27.6107V16.5532C64.7159 13.2849 63.0969 11.1772 59.798 11.1772C56.5297 11.1772 54.9108 13.2849 54.9108 16.5532V27.6107ZM57.2628 16.4311C57.2628 14.5067 58.0875 13.346 59.798 13.346C61.5391 13.346 62.3333 14.5067 62.3333 16.4311V27.7329C62.3333 29.6878 61.5391 30.818 59.798 30.818C58.0875 30.818 57.2628 29.6878 57.2628 27.7329V16.4311Z" fill="black"/>
<path id="Vector_7" d="M66.9662 11.3911V32.7729H69.3487V24.3423H71.4564C74.8469 24.3423 76.4353 22.5707 76.4353 19.1802V16.6143C76.4353 13.3765 74.9996 11.3911 71.6396 11.3911H66.9662ZM69.3487 22.2042V13.5598H71.6396C73.3807 13.5598 74.0833 14.5372 74.0833 16.4922V19.3329C74.0833 21.3794 73.228 22.2042 71.4564 22.2042H69.3487Z" fill="black"/>
<path id="Vector_8" d="M4.58168 49.3818H8.39986V58.5454H11.821V37.1636H8.39986V46.3272H4.58168V37.1636H1.22168V58.5454H4.58168V49.3818Z" fill="#00C2B4"/>
<path id="Vector_9" d="M14.868 37.1636V53.4443C14.868 56.8654 16.5785 58.8203 19.8775 58.8203C23.1764 58.8203 24.8869 56.8654 24.8869 53.4443V37.1636H21.7102V53.6581C21.7102 55.1854 21.0382 55.7352 19.9691 55.7352C18.9 55.7352 18.228 55.1854 18.228 53.6581V37.1636H14.868Z" fill="#00C2B4"/>
<path id="Vector_10" d="M35.1331 58.5454H38.5847V37.1636H35.5913V49.9621L32.1396 37.1636H27.9244V58.5454H30.9484V43.0588L35.1331 58.5454Z" fill="#00C2B4"/>
<path id="Vector_11" d="M40.7766 40.2181H44.2893V58.5454H47.6493V40.2181H51.1621V37.1636H40.7766V40.2181Z" fill="#00C2B4"/>
<path id="Vector_12" d="M56.7655 40.2181H62.5691V37.1636H53.4055V58.5454H62.5691V55.4908H56.7655V49.229H61.3779V46.1745H56.7655V40.2181Z" fill="#00C2B4"/>
<path id="Vector_13" d="M75.8614 58.5454C75.5254 57.7512 75.4949 56.9876 75.4949 55.949V52.6501C75.4949 50.4203 74.945 48.8014 73.265 48.0988C74.7618 47.3963 75.4643 45.9607 75.4643 43.7614V42.0814C75.4643 38.7825 73.9676 37.1636 70.4854 37.1636H65.4149V58.5454H68.7749V49.8399H69.9356C71.4629 49.8399 72.1349 50.573 72.1349 52.5585V55.9185C72.1349 57.6596 72.257 57.9956 72.4403 58.5454H75.8614ZM70.3938 40.2181C71.585 40.2181 72.1043 40.8901 72.1043 42.4174V44.525C72.1043 46.2356 71.3407 46.7854 70.0883 46.7854H68.7749V40.2181H70.3938Z" fill="#00C2B4"/>
</g>
</svg>
